<?xml version="1.0" encoding="iso-8859-1"?>
<!-- Uploaded to: SVG Repo, www.svgrepo.com, Generator: SVG Repo Mixer Tools -->
<!DOCTYPE svg PUBLIC "-//W3C//DTD SVG 1.1//EN" "http://www.w3.org/Graphics/SVG/1.1/DTD/svg11.dtd">
<svg fill="#000000" height="800px" width="800px" version="1.1" id="Capa_1" xmlns="http://www.w3.org/2000/svg" xmlns:xlink="http://www.w3.org/1999/xlink" 
	 viewBox="0 0 263.855 263.855" xml:space="preserve">
<g>
	<path d="M132.648,138.634c-6.439,0.696-10.843,7.753-8.455,13.857c1.355,3.462,4.649,5.292,7.998,5.366
		c1.85,1.483,4.775,1.49,6.95,0.741c3.22-1.108,5.399-3.909,5.933-7.234C146.236,144.14,139.778,137.863,132.648,138.634z
		 M139.153,153.491c-0.348-0.639-1.174-1.006-1.945-0.38c-0.903,0.733-2.035,1.062-3.188,1.106
		c-0.447-0.113-0.897-0.216-1.367-0.256c-0.146-0.012-0.25,0.066-0.381,0.09c-1.902-0.465-3.583-1.765-4.058-3.744
		c-0.813-3.388,1.607-6.832,5.043-7.175c3.917-0.391,7.709,2.66,7.575,6.732C140.784,151.303,140.161,152.594,139.153,153.491z"/>
	<path d="M253.372,87.108c-0.484-4.632-0.701-9.039-0.592-13.754c0.034-1.463-1.242-2.606-2.648-2.649
		c-4.954-0.149-9.913-0.313-14.875-0.462c0.093-0.185,0.205-0.343,0.262-0.576c0.871-3.612,4.126-11.439-1.215-13.174
		c-2.639-0.857-6.224-0.331-8.941-0.393c-3.344-0.076-6.693-0.218-10.037-0.18c-1.235,0.014-2.546,1.108-2.435,2.435
		c0.265,3.191,0.521,6.377,0.829,9.563c0.208,2.148,3.188,2.178,3.364,0c0.19-2.346,0.341-4.691,0.498-7.038
		c3.308,0.171,6.623,0.276,9.931,0.393c0.956,0.034,1.912,0.07,2.868,0.103c0.478,0.018,0.956,0.034,1.434,0.047
		c0.808-0.165,0.934-0.021,0.376,0.433c0.055,0.232-0.704,2.233-0.793,2.682c-0.252,1.265-0.494,2.525-0.703,3.8
		c-0.115,0.704,0.053,1.304,0.356,1.802c-13.757-0.382-27.529-0.595-41.261,0.062c-0.04-0.118-0.036-0.229-0.093-0.349
		c-4.505-9.499-8.907-24.438-19.471-28.283c-16.067-5.848-38.495,4.361-55.545,2.021c-1.231-0.169-2.84,0.084-3.43,1.397
		c-4.277,9.494-9.404,18.197-14.78,27.081c-8.483,0.529-16.96,0.665-25.434,0.726c0.369-4.893,0.133-7.075-5.872-7.577
		c-14.149-1.182-28.661-0.956-42.844-0.674c-1.171,0.023-2.144,0.967-2.153,2.152c-0.022,2.694,0.442,4.779,1.335,7.131
		c-8.09,0.969-9.726,3.692-9.711,12.741c-0.233-0.006-0.466-0.012-0.699-0.018c-0.773-0.019-1.346,0.222-1.822,0.556
		c-5.657-0.044-10.836,5.189-8.828,11.321c1.067,3.257,4.126,5.651,7.406,6.388c1.608,0.362,3.72,0.383,5.339-0.284
		c-0.7,23.285-0.155,46.69-0.158,69.95c-0.001,11.003-5.557,34.561,1.489,43.365c0.922,1.152,2.409,0.843,3.342-0.017
		c75.659,10.172,156.191,5.303,232.316,3.843c3.204-0.061,3.46-4.546,0.808-5.309c2.008-26.587,2.328-53.234,2.98-79.884
		c0.197-8.068,2.483-20.079,2.435-30.82c3.916-0.016,7.434-4.075,7.456-8.084C263.879,93.161,258.313,86.446,253.372,87.108z
		 M13.345,99.711c-1.153-0.016-2.234,0.559-3.452,0.537c-1.7-0.032-3.616-0.95-4.604-2.359c-1.973-2.816,0.111-6.058,2.906-7.535
		c0.313,1.249,1.263,2.365,2.897,2.521c0.838,0.079,1.648,0.099,2.473,0.153C13.45,95.252,13.43,97.485,13.345,99.711z
		 M128.685,201.754c0.088-0.204,0.161-0.434,0.103-0.903l0.519-2.498c0.259-1.249,0.518-2.498,0.778-3.747
		c0.504-2.428,1.229-4.953,1.187-7.442c1.43,0.065,2.887,0.062,4.39-0.061c0.398-0.032,0.705-0.245,0.942-0.522
		c3.773,0.008,7.48-0.499,11.033-1.459c-1.25,5.04-0.16,12.662,4.483,14.52c1.19,0.476,1.981-0.86,1.84-1.84
		c-0.345-2.378-2.297-4.3-2.909-6.696c-0.61-2.389-0.367-4.638-0.169-7.014c7.002-2.509,13.236-6.831,17.947-12.494l3.675,1.086
		c1.998,0.59,3.956,1.489,6.048,1.225c1.535-0.193,2.068-1.925,0.777-2.867c-1.709-1.248-3.825-1.403-5.862-1.851
		c-0.834-0.184-1.669-0.367-2.503-0.551c3.553-5.174,5.982-11.209,6.669-17.938c0.063-0.619,0.059-1.228,0.095-1.843
		c1.996-0.339,3.984-0.532,6.02-0.456c1.939,0.073,3.641,0.55,5.542,0.068c1.459-0.369,1.831-2.598,0.433-3.311
		c-3.302-1.685-8.141-0.622-11.899,0.469c-0.096-6.161-1.549-12.026-4.039-17.337c4.52-1.009,10.234-2.932,12.095-6.572
		c0.092-0.181,0.088-0.358,0.106-0.535c3.573,7.115,5.497,15.152,5.021,23.821c-1.457,26.547-25.801,57.745-53.266,58.154
		c-0.99,0.015-1.62,0.535-1.956,1.203c-2.368,0.034-4.643-0.121-6.876-0.359c0.169-0.179,0.353-0.335,0.49-0.565
		C129.782,202.796,129.316,201.974,128.685,201.754z M124.484,203.368c-16.54-3.19-28.917-13.967-36.496-28.718
		c0.016-0.006,0.027,0.008,0.044,0.002c2.866-1.177,5.686-2.447,8.511-3.719c2.02-0.908,4.256-1.683,6.199-2.832
		c2.114,3.758,4.73,7.152,7.776,10.022c-0.032,0.014-0.061-0.006-0.093,0.011c-4.066,2.082-7.675,5.922-11.221,8.805
		c-1.025,0.833,0.311,2.548,1.412,1.829c3.842-2.509,8.575-4.779,11.813-8.037c0.207-0.208,0.225-0.443,0.3-0.672
		c4.209,3.365,9.142,5.749,14.743,6.675c-0.809,2.148-1.182,4.455-1.586,6.714c-0.525,2.941-1.072,5.875-1.487,8.833
		C124.345,202.665,124.391,203.027,124.484,203.368z M131.476,91.604c-0.745,3.954-0.827,8.284-0.963,12.217
		c-5.269,0.476-10.085,1.99-14.413,4.237c-0.59-1.951-1.239-3.888-1.838-5.822c-0.616-1.987-0.975-4.212-1.726-6.206
		C118.333,93.706,124.68,92.16,131.476,91.604z M113.67,109.456c-5.596,3.484-10.088,8.454-13.136,14.558
		c-4.049-2.443-9.38-3.516-13.957-3.477c-1.681,0.014-2.198,2.784-0.413,3.05c4.675,0.696,8.607,2.17,12.919,3.727
		c-1.391,3.599-2.355,7.503-2.711,11.744c-0.125,1.484-0.159,2.985-0.144,4.491c-2.172-0.751-4.653-0.685-6.932-0.747
		c-3.079-0.083-6.163,0.062-9.197,0.601c-0.066,0.012-0.079,0.072-0.137,0.091c-0.206-20.78,11.293-37.417,29.073-45.927
		c0.47,2.137,1.402,4.274,2.13,6.206C111.89,105.697,112.723,107.609,113.67,109.456z M80.447,145.973
		c2.956,0.052,5.904,0.005,8.85,0.31c2.395,0.248,4.71,0.967,7.08,0.813c0.491,6.096,2.101,12.181,4.676,17.715
		c-1.954,0.783-3.812,1.993-5.626,2.954c-2.81,1.489-5.622,2.965-8.381,4.548c-0.073,0.042-0.075,0.127-0.133,0.178
		c-2.609-5.55-4.578-11.603-5.847-18.006c-0.588-2.968-0.868-5.848-1.012-8.683C80.188,145.857,80.285,145.97,80.447,145.973z
		 M101.061,145.794c-1.418-24.733,19.501-42.958,43.925-36.075c43.661,12.304,31.466,75.329-13.324,71.899
		c-1.06-0.081-1.713,0.432-2.021,1.132C112.83,177.468,102.138,164.563,101.061,145.794z M184.304,119.672
		c-2.34,0.487-4.189,2.343-6.288,3.451c-1.842,0.973-3.776,1.656-5.753,2.234c-2.868-5.055-6.79-9.437-11.431-12.96
		c1.827-3.02,3.613-6.061,5.33-9.144c0.426-0.765,0.899-1.549,1.374-2.345c7.373,4.847,13.622,11.26,17.783,18.954
		C185.029,119.694,184.695,119.59,184.304,119.672z M162.832,101.306c-1.494,3.093-3.062,6.146-4.663,9.184
		c-5.411-3.487-11.672-5.834-18.511-6.585c-2.009-0.221-3.963-0.268-5.889-0.237c0.769-3.943,1.629-8.248,1.685-12.273
		c10.086-0.179,19.966,2.489,28.551,7.274C163.624,99.565,163.242,100.457,162.832,101.306z M127.83,72.349
		c1.231-4.262,1.479-8.86,1.884-13.319c7.986-0.22,15.969-0.4,23.954-0.676c-0.059,4.168,0.162,8.304,0.647,12.44
		C145.494,71.771,136.701,72.075,127.83,72.349z M59.074,68.793c0.166,0.001,0.335-0.014,0.501-0.011
		c2.703-0.324,5.345-0.04,7.928,0.851c-0.121,1.06-0.168,2.127-0.243,3.19c-2.91,0.012-5.818,0.025-8.728,0.031
		C59.04,71.532,59.289,70.165,59.074,68.793z M56.892,68.843c-0.025,1.373,0.079,2.68-0.022,4.018
		c-1.895,0.005-3.789,0.031-5.684,0.039c0.093-1.331,0.008-2.616-0.291-3.864C52.892,68.969,54.892,68.893,56.892,68.843z
		 M47.943,69.114c0.254,1.25,0.392,2.519,0.403,3.806c-2.503,0.017-5.005,0.058-7.507,0.095c-0.297-1.331-0.663-2.641-1.162-3.912
		C42.433,69.122,45.187,69.146,47.943,69.114z M30.87,68.625c2.433,0.063,4.951,0.463,6.352,0.475c0.101,0.001,0.201,0,0.302,0
		c0.001,0.044-0.033,0.079-0.026,0.124c0.195,1.312,0.613,2.572,1.07,3.819c-2.548,0.047-5.095,0.152-7.642,0.24
		c-0.535-1.134-0.441-2.596-0.006-3.745C31.049,69.195,31.005,68.888,30.87,68.625z M28.261,68.772
		c-1.13,1.489-1.176,3.171-0.47,4.609c-0.439,0.02-0.878,0.021-1.316,0.042c-0.655,0.032-1.154,0.088-1.754,0.127
		C23.881,70.301,25.721,69.131,28.261,68.772z M247.814,151.797c-0.603,21.49-1.278,42.914-0.794,64.408
		c-75.779,0.592-152.993-6.099-228.501-1.952c-0.182-0.264-0.349-0.551-0.609-0.71c-0.215-0.131-0.429-0.261-0.643-0.393
		c-0.301-0.183-0.611-0.174-0.917-0.176c1.327-6.316,2.197-19.915,2.198-19.758c-0.052-10.929-0.102-21.858-0.153-32.787
		c-0.026-5.625,1.689-54.645-0.501-67.218c1.52,0.019,3.036,0.017,4.542-0.052c6.613,0.165,13.227,0.329,19.841,0.495
		c0.935,0.023,1.667-0.384,2.195-0.982c22.476,1.767,45.582-0.245,68.033-1.895c-24.28,8.706-40.475,29.981-37.003,57.969
		c3.834,30.905,26.221,64.372,60.574,58.33c0.375,0.427,0.928,0.722,1.666,0.744c30.636,0.914,56.699-33.855,58.056-62.813
		c0.973-20.768-10.03-38.126-26.011-48.403c0.319-0.807,0.57-1.627,0.699-2.459c0.247-1.586-1.641-3.157-2.956-1.72
		c-0.536,0.586-0.997,1.238-1.417,1.923c-4.329-2.379-8.968-4.23-13.78-5.547c31.887-0.827,63.712-0.124,95.652-0.367
		c-0.089,0.373-0.102,0.783,0.088,1.264C254.467,105.909,248.289,134.864,247.814,151.797z M256.262,102.408
		c-0.213-3.809-0.86-7.311-2.048-10.374c1.481,0.791,3.031,1.509,4.093,2.956C260.168,97.526,259.28,101.761,256.262,102.408z"/>
</g>
</svg>